<?xml version="1.0" encoding="UTF-8"?>
<svg xmlns="http://www.w3.org/2000/svg" xmlns:xlink="http://www.w3.org/1999/xlink" width="600" height="600" viewBox="0 0 600 600">
<defs>
<linearGradient id="linear-pattern-0" gradientUnits="userSpaceOnUse" x1="-233" y1="10" x2="10" y2="150" gradientTransform="matrix(1, 0, 0, 1, 300, 300)">
<stop offset="0" stop-color="rgb(79.6%, 23.5%, 20%)" stop-opacity="1"/>
<stop offset="1" stop-color="rgb(22%, 59.6%, 14.9%)" stop-opacity="1"/>
</linearGradient>
<linearGradient id="linear-pattern-1" gradientUnits="userSpaceOnUse" x1="10" y1="150" x2="220" y2="-120" gradientTransform="matrix(1, 0, 0, 1, 300, 300)">
<stop offset="0" stop-color="rgb(22%, 59.6%, 14.9%)" stop-opacity="1"/>
<stop offset="1" stop-color="rgb(58.4%, 34.5%, 69.8%)" stop-opacity="1"/>
</linearGradient>
</defs>
<path fill-rule="nonzero" fill="rgb(90%, 90%, 90%)" fill-opacity="1" d="M 600 300 L 599.539062 361.625 L 598.148438 387.015625 L 595.828125 406.296875 L 592.566406 422.296875 L 588.355469 436.09375 L 583.179688 448.234375 L 577.015625 459.023438 L 569.835938 468.667969 L 561.605469 477.292969 L 552.269531 484.996094 L 541.765625 491.84375 L 530 497.878906 L 516.851562 503.144531 L 502.136719 507.664062 L 485.585938 511.460938 L 466.769531 514.546875 L 444.949219 516.9375 L 418.65625 518.640625 L 384.03125 519.660156 L 300 520 L 215.96875 519.660156 L 181.34375 518.640625 L 155.050781 516.9375 L 133.230469 514.546875 L 114.414062 511.460938 L 97.863281 507.664062 L 83.148438 503.144531 L 70 497.878906 L 58.234375 491.84375 L 47.730469 484.996094 L 38.394531 477.292969 L 30.164062 468.667969 L 22.984375 459.023438 L 16.820312 448.234375 L 11.644531 436.09375 L 7.433594 422.296875 L 4.171875 406.296875 L 1.851562 387.015625 L 0.460938 361.625 L 0 300 L 0.460938 238.375 L 1.851562 212.984375 L 4.171875 193.703125 L 7.433594 177.703125 L 11.644531 163.90625 L 16.820312 151.765625 L 22.984375 140.976562 L 30.164062 131.332031 L 38.394531 122.707031 L 47.730469 115.003906 L 58.234375 108.15625 L 70 102.121094 L 83.148438 96.855469 L 97.863281 92.335938 L 114.414062 88.539062 L 133.230469 85.453125 L 155.050781 83.0625 L 181.34375 81.359375 L 215.96875 80.339844 L 300 80 L 384.03125 80.339844 L 418.65625 81.359375 L 444.949219 83.0625 L 466.769531 85.453125 L 485.585938 88.539062 L 502.136719 92.335938 L 516.851562 96.855469 L 530 102.121094 L 541.765625 108.15625 L 552.269531 115.003906 L 561.605469 122.707031 L 569.835938 131.332031 L 577.015625 140.976562 L 583.179688 151.765625 L 588.355469 163.90625 L 592.566406 177.703125 L 595.828125 193.703125 L 598.148438 212.984375 L 599.539062 238.375 Z M 600 300 "/>
<path fill-rule="nonzero" fill="rgb(79.6%, 23.5%, 20%)" fill-opacity="1" stroke-width="15" stroke-linecap="butt" stroke-linejoin="miter" stroke="rgb(25.1%, 38.8%, 84.7%)" stroke-opacity="1" stroke-miterlimit="10" d="M 127 310 C 127 343.136719 100.136719 370 67 370 C 33.863281 370 7 343.136719 7 310 C 7 276.863281 33.863281 250 67 250 C 100.136719 250 127 276.863281 127 310 Z M 127 310 "/>
<path fill-rule="nonzero" fill="rgb(22%, 59.6%, 14.9%)" fill-opacity="1" stroke-width="15" stroke-linecap="butt" stroke-linejoin="miter" stroke="rgb(25.1%, 38.8%, 84.7%)" stroke-opacity="1" stroke-miterlimit="10" d="M 370 450 C 370 483.136719 343.136719 510 310 510 C 276.863281 510 250 483.136719 250 450 C 250 416.863281 276.863281 390 310 390 C 343.136719 390 370 416.863281 370 450 Z M 370 450 "/>
<path fill-rule="nonzero" fill="rgb(58.4%, 34.5%, 69.8%)" fill-opacity="1" stroke-width="15" stroke-linecap="butt" stroke-linejoin="miter" stroke="rgb(25.1%, 38.8%, 84.7%)" stroke-opacity="1" stroke-miterlimit="10" d="M 580 180 C 580 213.136719 553.136719 240 520 240 C 486.863281 240 460 213.136719 460 180 C 460 146.863281 486.863281 120 520 120 C 553.136719 120 580 146.863281 580 180 Z M 580 180 "/>
<path fill="none" stroke-width="20" stroke-linecap="butt" stroke-linejoin="miter" stroke="url(#linear-pattern-0)" stroke-miterlimit="10" d="M 67 310 L 310 450 "/>
<path fill="none" stroke-width="20" stroke-linecap="butt" stroke-linejoin="miter" stroke="url(#linear-pattern-1)" stroke-miterlimit="10" d="M 310 450 L 520 180 "/>
</svg>
