<?xml version="1.0" encoding="UTF-8"?>
<svg xmlns="http://www.w3.org/2000/svg" xmlns:xlink="http://www.w3.org/1999/xlink" width="600" height="600" viewBox="0 0 600 600">
<path fill-rule="nonzero" fill="rgb(20%, 20%, 30%)" fill-opacity="1" d="M 600 300 L 599.539062 361.625 L 598.148438 387.015625 L 595.828125 406.296875 L 592.566406 422.296875 L 588.355469 436.09375 L 583.179688 448.234375 L 577.015625 459.023438 L 569.835938 468.667969 L 561.605469 477.292969 L 552.269531 484.996094 L 541.765625 491.84375 L 530 497.878906 L 516.851562 503.144531 L 502.136719 507.664062 L 485.585938 511.460938 L 466.769531 514.546875 L 444.949219 516.9375 L 418.65625 518.640625 L 384.03125 519.660156 L 300 520 L 215.96875 519.660156 L 181.34375 518.640625 L 155.050781 516.9375 L 133.230469 514.546875 L 114.414062 511.460938 L 97.863281 507.664062 L 83.148438 503.144531 L 70 497.878906 L 58.234375 491.84375 L 47.730469 484.996094 L 38.394531 477.292969 L 30.164062 468.667969 L 22.984375 459.023438 L 16.820312 448.234375 L 11.644531 436.09375 L 7.433594 422.296875 L 4.171875 406.296875 L 1.851562 387.015625 L 0.460938 361.625 L 0 300 L 0.460938 238.375 L 1.851562 212.984375 L 4.171875 193.703125 L 7.433594 177.703125 L 11.644531 163.90625 L 16.820312 151.765625 L 22.984375 140.976562 L 30.164062 131.332031 L 38.394531 122.707031 L 47.730469 115.003906 L 58.234375 108.15625 L 70 102.121094 L 83.148438 96.855469 L 97.863281 92.335938 L 114.414062 88.539062 L 133.230469 85.453125 L 155.050781 83.0625 L 181.34375 81.359375 L 215.96875 80.339844 L 300 80 L 384.03125 80.339844 L 418.65625 81.359375 L 444.949219 83.0625 L 466.769531 85.453125 L 485.585938 88.539062 L 502.136719 92.335938 L 516.851562 96.855469 L 530 102.121094 L 541.765625 108.15625 L 552.269531 115.003906 L 561.605469 122.707031 L 569.835938 131.332031 L 577.015625 140.976562 L 583.179688 151.765625 L 588.355469 163.90625 L 592.566406 177.703125 L 595.828125 193.703125 L 598.148438 212.984375 L 599.539062 238.375 Z M 600 300 "/>
<path fill-rule="nonzero" fill="rgb(22%, 59.6%, 14.9%)" fill-opacity="1" stroke-width="2" stroke-linecap="butt" stroke-linejoin="miter" stroke="rgb(25.1%, 38.8%, 84.7%)" stroke-opacity="1" stroke-miterlimit="10" d="M 140 180 C 140 207.613281 117.613281 230 90 230 C 62.386719 230 40 207.613281 40 180 C 40 152.386719 62.386719 130 90 130 C 117.613281 130 140 152.386719 140 180 Z M 140 180 "/>
<path fill-rule="nonzero" fill="rgb(79.6%, 23.5%, 20%)" fill-opacity="1" stroke-width="2" stroke-linecap="butt" stroke-linejoin="miter" stroke="rgb(25.1%, 38.8%, 84.7%)" stroke-opacity="1" stroke-miterlimit="10" d="M 330 460 C 330 487.613281 307.613281 510 280 510 C 252.386719 510 230 487.613281 230 460 C 230 432.386719 252.386719 410 280 410 C 307.613281 410 330 432.386719 330 460 Z M 330 460 "/>
<path fill-rule="nonzero" fill="rgb(58.4%, 34.5%, 69.8%)" fill-opacity="1" stroke-width="2" stroke-linecap="butt" stroke-linejoin="miter" stroke="rgb(25.1%, 38.8%, 84.7%)" stroke-opacity="1" stroke-miterlimit="10" d="M 570 300 C 570 327.613281 547.613281 350 520 350 C 492.386719 350 470 327.613281 470 300 C 470 272.386719 492.386719 250 520 250 C 547.613281 250 570 272.386719 570 300 Z M 570 300 "/>
<path fill="none" stroke-width="8" stroke-linecap="butt" stroke-linejoin="miter" stroke="rgb(25.1%, 38.8%, 84.7%)" stroke-opacity="1" stroke-miterlimit="10" d="M 90 180 L 280 460 "/>
<path fill="none" stroke-width="8" stroke-linecap="butt" stroke-linejoin="miter" stroke="rgb(25.1%, 38.8%, 84.7%)" stroke-opacity="1" stroke-miterlimit="10" d="M 280 460 L 520 300 "/>
</svg>
