<?xml version="1.0" encoding="UTF-8"?>
<svg xmlns="http://www.w3.org/2000/svg" xmlns:xlink="http://www.w3.org/1999/xlink" width="600" height="600" viewBox="0 0 600 600">
<defs>
<linearGradient id="linear-pattern-0" gradientUnits="userSpaceOnUse" x1="-220" y1="10" x2="10" y2="150" gradientTransform="matrix(1, 0, 0, 1, 300, 300)">
<stop offset="0" stop-color="rgb(22%, 59.6%, 14.9%)" stop-opacity="1"/>
<stop offset="1" stop-color="rgb(79.6%, 23.5%, 20%)" stop-opacity="1"/>
</linearGradient>
<linearGradient id="linear-pattern-1" gradientUnits="userSpaceOnUse" x1="10" y1="150" x2="210" y2="-100" gradientTransform="matrix(1, 0, 0, 1, 300, 300)">
<stop offset="0" stop-color="rgb(79.6%, 23.5%, 20%)" stop-opacity="1"/>
<stop offset="1" stop-color="rgb(58.4%, 34.5%, 69.8%)" stop-opacity="1"/>
</linearGradient>
</defs>
<path fill-rule="nonzero" fill="rgb(22%, 59.6%, 14.9%)" fill-opacity="1" stroke-width="15" stroke-linecap="butt" stroke-linejoin="miter" stroke="rgb(25.1%, 38.8%, 84.7%)" stroke-opacity="1" stroke-miterlimit="10" d="M 140 310 C 140 343.136719 113.136719 370 80 370 C 46.863281 370 20 343.136719 20 310 C 20 276.863281 46.863281 250 80 250 C 113.136719 250 140 276.863281 140 310 Z M 140 310 "/>
<path fill-rule="nonzero" fill="rgb(79.6%, 23.5%, 20%)" fill-opacity="1" stroke-width="15" stroke-linecap="butt" stroke-linejoin="miter" stroke="rgb(25.1%, 38.8%, 84.7%)" stroke-opacity="1" stroke-miterlimit="10" d="M 370 450 C 370 483.136719 343.136719 510 310 510 C 276.863281 510 250 483.136719 250 450 C 250 416.863281 276.863281 390 310 390 C 343.136719 390 370 416.863281 370 450 Z M 370 450 "/>
<path fill-rule="nonzero" fill="rgb(58.4%, 34.5%, 69.8%)" fill-opacity="1" stroke-width="15" stroke-linecap="butt" stroke-linejoin="miter" stroke="rgb(25.1%, 38.8%, 84.7%)" stroke-opacity="1" stroke-miterlimit="10" d="M 570 200 C 570 233.136719 543.136719 260 510 260 C 476.863281 260 450 233.136719 450 200 C 450 166.863281 476.863281 140 510 140 C 543.136719 140 570 166.863281 570 200 Z M 570 200 "/>
<path fill="none" stroke-width="20" stroke-linecap="butt" stroke-linejoin="miter" stroke="url(#linear-pattern-0)" stroke-miterlimit="10" d="M 80 310 L 310 450 "/>
<path fill="none" stroke-width="20" stroke-linecap="butt" stroke-linejoin="miter" stroke="url(#linear-pattern-1)" stroke-miterlimit="10" d="M 310 450 L 510 200 "/>
</svg>
